<?xml version="1.0" encoding="utf-8"?>
<!-- Generator: Adobe Illustrator 25.2.0, SVG Export Plug-In . SVG Version: 6.00 Build 0)  -->
<svg version="1.1" id="Layer_1" xmlns="http://www.w3.org/2000/svg" xmlns:xlink="http://www.w3.org/1999/xlink" x="25" y="25"
	 viewBox="0 0 568.6 499.6" enable-background="new 0 0 568.6 499.6" xml:space="preserve">
<g>
	<g>
		<path fill="#FFFFFF" d="M568.6,440c0,19.8,0,39.7,0,59.5c-189.5,0-379.1,0-568.6,0C0,333,0,166.5,0,0c189.5,0,379.1,0,568.6,0
			c0,146.5,0,293.1,0,439.6c-0.2-0.1-0.4-0.1-0.5-0.3c-0.4-0.6-0.7-1.2-1.1-1.8c-0.2-0.2-0.3-0.6-0.8-0.4c0,0.8-0.2,1.7,0.3,2.6
			C567.2,439.9,567.9,440,568.6,440z M6.1,436.3c1.1,0,1.8,0,2.4,0c90.3,0,180.6,0,270.9,0c1.1,0,2.1,0,3.2,0c0.9,0,1.7-0.1,2.4-0.5
			c0.3-0.7-0.1-1.1-0.5-1.5c-1-0.9-2-1.9-3.1-2.8c-7.7-6.2-15.4-12.3-23.1-18.4c-3.2-2.6-6.5-5.2-9.7-7.8c-1.8-1.5-3.4-3.2-4.7-5.2
			c-2.4-3.7-2.9-7.6-1.1-11.6c0.8-1.7,1.6-3.4,2.6-5.1c5.4-9.3,11-18.4,16.7-27.4c2.1-3.3,4-6.6,5.9-10c0.9-1.7,1.7-3.4,2.4-5.2
			c1.7-4.6,1.6-9.1-0.5-13.6c-0.8-1.8-1.8-3.5-2.7-5.2c-1.2-2.3-2.4-4.5-3.6-6.8c-1.6-3-3.2-6-5-9c-1.8-3-3.9-5.8-6.3-8.3
			c-2.6-2.7-5.8-4.3-9.4-4.9c-3.2-0.6-6.5-0.9-9.8-0.8c-3.3,0-6.7,0.1-10,0.2c-2.4,0.1-4.8,0.4-7.3,0.6c-3.5,0.3-6.9,0.6-10.4,0.9
			c-2.5,0.2-5,0.5-7.5,0.6c-3,0.1-6,0.1-9.1,0c-1.7,0-3.4-0.2-5.1-0.5c-1.5-0.3-3.1-0.7-4.6-1.2c-3.1-1.1-5.1-3.4-6.1-6.5
			c-0.6-2-0.9-4.1-1.1-6.2c-0.2-2.5-0.3-5-0.4-7.5c-0.3-7.3-0.5-14.6-0.8-21.9c-0.3-6.6-0.6-13.1-0.9-19.7c0-0.4-0.1-0.8-0.1-1.2
			c-0.1-1.6-0.2-3.2-0.2-4.7c0.1-3,0.7-5.9,2-8.6c2.1-4.3,5.4-6.6,10.2-7c0.7-0.1,1.4-0.2,2.1-0.3c5-1.1,10-2.2,15-3.3
			c7-1.4,14-3.1,20.8-5.1c3.8-1.1,7.6-2.4,11.2-4.3c3.7-2,6.8-4.7,9.1-8.2c1.4-2.1,2.6-4.4,3.7-6.7c2.4-5.4,4.2-11,5.9-16.7
			c0.5-1.8,1-3.5,1.3-5.4c0.8-4.5,0.2-8.8-2.3-12.7c-1.1-1.8-2.4-3.6-3.7-5.3c-3.7-4.5-7.4-9.1-11.2-13.5
			c-5-5.8-10.1-11.4-15.2-17.1c-0.4-0.5-0.7-1.1-1.6-1.2C146.7,218.6,76.5,327.3,6.1,436.3z M344.6,80.5c-0.4,0.2-0.8,0.4-1.1,0.6
			c-14,8.2-26.8,18-37.9,29.9c-15.6,16.6-26.8,35.8-33.2,57.7c-2.1,7.1-3.7,14.2-4.5,21.5c-0.3,2.5-0.6,5.1-0.8,7.6
			c-0.3,3.3-0.5,6.7-0.6,10c-0.2,7,0.2,13.9,1,20.8c0.5,4.5,1.2,9,2,13.4c1.6,8.6,3.9,17,6.8,25.2c10.5,29.4,27.2,54.7,50.5,75.5
			c21,18.8,45.2,31.8,72.8,38.2c4.3,1,8.7,1.8,13.1,2.4c2.9,0.4,5.9,0.7,8.8,0.9c3.6,0.3,7.2,0.5,10.8,0.6c3.3,0.1,6.6,0,9.8-0.2
			c3.5-0.2,7.1-0.4,10.6-0.8c3.3-0.4,6.6-0.8,9.9-1.3c7.6-1.3,15.1-3.1,22.5-5.4c10.2-3.2,20.1-7.2,29.8-11.9c0.5-0.3,1-0.6,1.5-0.9
			c-0.4-0.8-0.7-1.4-1-2.1c-1.5-3.1-3-6.1-4.6-9.2c-5.1-10.2-10.2-20.4-15.3-30.6c-0.3-0.5-0.3-1.2-1.1-1.4
			c-0.5,0.3-1.1,0.5-1.7,0.8c-3.2,1.4-6.5,2.9-9.7,4.3c-7.7,3.2-15.7,5.6-23.9,7.3c-3.9,0.8-7.7,1.4-11.7,1.8
			c-3.7,0.3-7.3,0.7-11,0.7c-3,0-5.9-0.1-8.9-0.3c-3.9-0.3-7.8-0.7-11.7-1.4c-8.4-1.5-16.5-3.9-24.3-7.2
			c-16.7-7.1-30.8-17.6-42.9-31.1c-13.6-15.2-23.2-32.5-28.9-52.1c-2.3-7.8-3.8-15.8-4.4-23.9c-0.3-4.3-0.5-8.6-0.2-13
			c0.3-4.8,0.8-9.5,1.6-14.3c1.7-9.2,4.7-18,8.9-26.4c6.7-13,15.9-23.9,27.2-33c4.4-3.5,9.1-6.7,13.9-9.7c0.6-0.4,1.3-0.6,1.7-1.2
			c-0.7-1.8-14.5-26.1-23.1-40.6C345.2,81.5,344.9,81,344.6,80.5z M366.3,437.6c14.6,0,29.3,0,43.9,0c0.6,0,1.2,0,1.8,0
			c2.5,0,3.2-1.5,3.4-3.3c0-0.3,0-0.5,0-0.8c-0.3-1.2-0.5-2.5-0.9-3.6c-2.2-5.8-5.5-10.7-10-14.9c-1.4-1.3-2.9-2.3-4.7-2.7
			c-5.1-1.3-10.1-3.1-15.2-4.8c-5.4-1.8-10.8-3.5-16.5-4.2c-3.2-0.4-6.4-0.3-9.6,0.4c-3.9,0.9-7.4,2.7-10.5,5.2
			c-6.9,5.6-13.7,11.2-20.6,16.8c-1.1,0.9-2.2,1.6-3.3,2.4c-1.8,1.3-3.7,2.6-5.4,3.9c-0.7,0.5-1.4,1.2-2,1.9
			c-0.4,0.4-0.6,0.8-0.9,1.3c-0.3,0.6-0.1,1.2,0.5,1.5c0.5,0.2,1,0.4,1.5,0.5c1.8,0.3,3.6,0.4,5.5,0.4
			C337.5,437.6,351.9,437.6,366.3,437.6z M332.7,64.6c0.1-1.1-0.3-2.3-0.9-3.4c-0.7-1.3-1.4-2.5-2.3-3.7
			c-11.1-16.5-22.1-33.1-33.2-49.6c-1-1.5-2.1-3-3.2-4.5c-0.7-0.9-1.5-1.7-2.3-2.4c-1-0.8-2.2-0.8-3.3,0c-0.7,0.5-1.4,1.2-2,1.9
			c-1.1,1.5-2.2,3-3.1,4.5c-3.3,5.3-6.5,10.6-9.8,15.9c-1.7,2.7-3.4,5.5-5,8.2c-0.8,1.4-1.5,2.9-2.2,4.4c-0.8,2-0.4,3.9,1.2,5.4
			c0.6,0.5,1.2,1.1,1.8,1.5c0.8,0.6,1.7,1.2,2.6,1.8c5,3.4,10.1,6.6,15.4,9.5c10.1,5.7,20.4,11,30.2,17.4c1.7,1.1,3.7,1.6,5.6,1.5
			c3.8-0.1,7-1.7,9.3-4.7C332.4,67.3,332.8,66.1,332.7,64.6z M565.8,439.8c0-1,0.1-1.8,0.1-2.5c0-1-0.2-1.9-0.8-2.8
			c-0.8-1.1-1.4-2.2-2.1-3.3c-7.7-12.1-15.5-24.1-23.1-36.2c-1.5-2.3-3.6-3.4-6.3-3.4c-1.5,0-3,0.5-4.4,1.1c-2.1,0.9-4,2.2-5.8,3.7
			c-4.3,3.4-7.9,7.5-11.5,11.6c-0.6,0.6-0.7,1.4-0.7,2.2c-0.1,3.6-0.3,7.2-0.5,10.8c0,0.5-0.1,0.9-0.1,1.4
			c-0.2,3.7-0.4,7.5-0.6,11.2c-0.1,1.7-0.2,3.4-0.3,5.1c0,0.4,0.1,0.7,0.2,1.2c18.3,0,36.5,0,54.7,0
			C564.9,439.9,565.2,439.8,565.8,439.8z M292.6,473.7c0.5-0.6,0.8-1,1.1-1.4c0.5-0.7,1.1-1.4,1.6-2.2c1.2-2.2,0.3-4.5-1-5.7
			c-0.6-0.5-1.3-1-2-1.3c-2.2-1.1-4.5-1.1-6.9-0.6c-2,0.5-3.6,1.5-4.9,3c-0.7,0.8-1.2,1.7-1.3,2.8c-0.1,1.1,0.2,1.9,1.2,2.4
			c1,0.5,1.8,1.2,2.5,2.1c0.2,0.2,0.2,0.5,0.4,0.8c-1.7,0.5-5.6,0.5-7.3,0.1c-0.3-0.6,0.1-1.1,0.2-1.7c0.1-0.6,0.3-1.2,0.3-1.7
			c0-0.6-0.3-1.2-0.8-1.5c-0.6-0.3-1.2-0.2-1.7,0.2c-0.5,0.4-1,0.9-1.4,1.4c-2.1,2.2-4.6,3.6-7.6,4.4c-3.5,0.9-7.1,1.2-10.7,1
			c-1.4-0.1-2.9-0.4-4.3-0.7c-2.3-0.6-3.7-2-3.9-4.4c0-0.5-0.2-1-0.2-1.6c-0.1-0.3-0.1-0.7-0.2-1c-0.5-1.5-2.1-1.8-3.1-0.6
			c-0.4,0.6-0.7,1.2-1,1.9c-0.9,2.5-0.9,5-0.8,7.6c0.1,1.4,0.4,2.7,1,4c0.9,2.1,2.4,3.6,4.4,4.5c1.3,0.6,2.7,0.9,4.2,1.1
			c2.4,0.3,4.8,0.2,7.3,0c4.4-0.4,8.5-1.6,12.1-4.2c0.3-0.2,0.7-0.3,1-0.5c0.5,0.6,0.9,1.1,1.3,1.6c1.1,1.2,2.4,1.9,4,2
			c2,0.1,3.9,0.1,5.9,0c1.8-0.1,3.3-0.7,4.6-2c0.3-0.3,0.7-0.6,1-0.9c0.3,0.2,0.5,0.2,0.6,0.3c1.7,1.9,4,2.5,6.4,2.6
			c1.6,0.1,3.2,0,4.7,0c1.6,0,3.1-0.5,4.3-1.6c0.3-0.3,0.7-0.5,1.1-0.8c0.3,0.3,0.6,0.5,0.8,0.7c1.3,1.3,2.8,1.9,4.6,1.8
			c0.7,0,1.4,0,2.2,0c1.3,0,2.4-0.5,3.4-1.4c0.4-0.4,0.9-0.8,1.2-1.1c0.2,0,0.3,0,0.3,0c0.4,0.2,0.8,0.4,1.2,0.6
			c5.4,2.5,10.7,2.4,15.7-0.9c3.1-2,5.1-5,6.4-8.5c0.7-1.8,0.9-3.7,0.7-5.6c-0.3-2.6-1.7-4.5-4.2-5.5c-1.4-0.6-2.8-0.5-4.3-0.2
			c-1.8,0.4-3.3,1.3-4.7,2.4c-2,1.5-3.7,3.4-5.3,5.3c-0.7,0.8-1.3,1.6-2,2.4c-0.2,0.2-0.5,0.4-0.7,0.5c-0.8-0.4-1-1-1.2-1.6
			c-0.2-0.5-0.3-1.1-0.6-1.7c-0.3-0.8-0.7-1.7-1.7-1.7c-1,0-1.3,0.9-1.6,1.7c-0.3,0.8-0.5,1.6-0.9,2.4c-0.3,0.8-1,1.2-1.8,1.2
			c-1,0-2,0-3,0c-1.6-0.1-2.3-0.7-2.8-2.3c-0.2-0.8-0.4-1.7-0.8-2.4c-0.5-1.1-2-1.2-2.8-0.3c-0.3,0.3-0.4,0.7-0.6,1
			c-0.2,0.6-0.5,1.2-0.6,1.9c-0.4,1.4-1.4,2.1-2.7,2.2c-1.9,0.1-3.8,0-5.7,0C293.3,474,293.1,473.9,292.6,473.7z M151,480.6
			c0.3,0.4,0.6,0.7,0.8,0.9c0.5,0.7,1,1.4,1.6,2c1.4,1.4,3.1,2.2,5.1,2.2c1.8,0,3.5,0,5.3,0c1.9-0.1,3.6-0.7,4.9-2.1
			c0.3-0.3,0.7-0.6,1-0.8c0.3,0.2,0.4,0.3,0.6,0.4c1.2,1.3,2.6,1.9,4.3,2.3c1.8,0.4,3.5,0.2,5.3,0.3c1.6,0.1,2.8-0.6,3.8-1.7
			c0.3-0.4,0.7-0.7,1.1-1.1c0.4,0.3,0.6,0.5,0.8,0.7c0.2,0.2,0.5,0.4,0.7,0.7c2.4,2.1,6.8,2.1,9.1,0.1c1.4-1.2,2.3-2.6,2.8-4.4
			c0.5-2,0.2-3.9-0.1-5.9c-0.4-2.2-1.2-4.3-2.6-6.1c-1.8-2.3-4.2-3.2-7.1-2.8c-3.1,0.5-4.8,2.4-5.7,5.3c-0.2,0.7-0.3,1.4-0.4,2.1
			c-0.1,0.8-0.7,1.3-1.4,1.4c-0.3,0.1-0.5,0.1-0.8,0.1c-1.5,0-3,0-4.5,0c-0.2,0-0.4-0.2-0.8-0.3c0.3-0.4,0.5-0.8,0.7-1.1
			c0.4-0.6,1-1.1,1.4-1.7c0.4-0.6,0.7-1.3,0.9-1.9c0.5-2.2-0.3-4.1-2.3-5.4c-2.4-1.6-5-1.8-7.8-1.2c-2.1,0.4-3.9,1.5-5.3,3.2
			c-0.6,0.8-1.1,1.6-1.2,2.7c-0.1,1.1,0.1,1.9,1.2,2.4c1,0.5,1.9,1.2,2.6,2.1c0.2,0.2,0.3,0.5,0.5,1c-0.6,0.1-1,0.2-1.5,0.3
			c-1.6,0-3.2,0-4.7,0c-1.6,0.1-2.6-0.7-3.3-2.1c-0.3-0.7-0.6-1.3-0.8-2c-1.3-3.5-2.6-7-3.8-10.5c-0.2-0.5-0.3-1.2-1-1.4
			c-0.2,0.1-0.4,0.1-0.5,0.2c-1.7,1.7-3.5,3.4-5.2,5.1c-0.4,0.4-0.4,0.8-0.2,1.3c0.3,0.8,0.6,1.6,1,2.4c0.8,2,1.7,4,2.5,6
			c0.3,0.7,0.1,1.2-0.5,1.5c-1.5,0.7-3.1,1-4.8,0.9c-1.6-0.1-2.7-0.8-3.1-2.5c-0.1-0.6-0.4-1.1-0.7-1.6c-0.7-1.1-2.2-1.2-3-0.1
			c-0.3,0.5-0.6,1-0.8,1.6c-0.8,2.7-1.1,5.4-0.4,8.2c0.7,2.9,2.4,4.8,5.4,5.3c0.8,0.2,1.7,0.1,2.6,0.1c2.4-0.1,4.3-0.9,5.9-2.7
			c0.6-0.7,1.1-1.5,1.7-2.2C150.4,481.3,150.7,481,151,480.6z M493.4,473.8c0.2-0.6,0.3-1.1,0.4-1.6c0.1-0.6,0.2-1.2,0.3-1.7
			c0-0.6-0.1-1.2-0.7-1.5c-0.7-0.4-1.3-0.2-1.8,0.3c-0.6,0.5-1.2,1.1-1.7,1.6c-1.6,1.7-3.6,2.9-5.8,3.6c-4.3,1.4-8.7,1.8-13.2,1.3
			c-0.8-0.1-1.6-0.2-2.3-0.4c-3.2-0.8-4.6-1.8-4.9-5.7c0-0.6-0.1-1.2-0.4-1.7c-0.6-1.3-1.9-1.5-2.9-0.4c-0.6,0.7-1,1.6-1.2,2.5
			c-0.7,2.8-1.1,5.7-0.5,8.6c0.8,4,3,6.7,6.9,7.7c2.4,0.7,4.9,0.9,7.4,0.7c0.9-0.1,1.8-0.1,2.7-0.2c4.1-0.4,8-1.5,11.4-4
			c0.4-0.3,0.8-0.5,1.2-0.8c0.4,0.4,0.7,0.8,1.1,1.2c1.3,1.6,3,2.5,5.1,2.4c1.8,0,3.7,0,5.5,0c1.5,0,2.9-0.3,4.2-0.9
			c3-1.2,5-3.3,5.9-6.4c1.2-4.5,0.7-8.7-1.7-12.7c-0.4-0.7-1-1.4-1.5-2.1c-0.2-0.2-0.2-0.6-0.3-1c0.7-0.3,1.3-0.5,1.9-0.7
			c2.1-0.7,4.3-1.3,6.4-2c0.9-0.3,1.4-0.8,1.5-1.8c0.2-2,0.5-4,0.7-6.1c0.1-0.6,0.3-1.3-0.2-2c-0.4,0.1-0.8,0.1-1.2,0.2
			c-2.6,0.8-5.1,1.7-7.7,2.5c-3.1,1-6.1,2.1-9.2,3c-1,0.3-1.6,0.8-1.8,1.9c-0.4,2.4-0.8,4.8-1.2,7.3c0.5,0.4,1,0.9,1.5,1.3
			c1.3,1.1,2.6,2.3,3.8,3.5c0.8,0.8,1.6,1.7,2.3,2.6c0.2,0.3,0.2,0.7,0.4,1c-0.6,0.5-1.3,0.6-1.9,0.7
			C499.6,474.2,495,474.2,493.4,473.8z M440.9,469.6c0.2,0.5,0.3,0.9,0.5,1.3c0.2,0.6,0.4,1.1,0.5,1.7c0.2,1-0.3,1.7-1.3,1.8
			c-1.7,0.2-2.4-0.3-2.9-1.9c-0.2-0.8-0.4-1.5-0.6-2.3c-0.2-0.7-0.8-1-1.5-1.1c-0.8,0-1.4,0.3-1.7,1.1c-0.2,0.5-0.3,1-0.5,1.5
			c-0.1,0.5-0.2,1-0.4,1.5c-0.3,0.7-1,1.1-1.7,1c-1-0.1-1.7-0.5-2-1.6c-0.2-0.8-0.4-1.7-0.8-2.4c-0.6-1.3-2.2-1.5-3-0.3
			c-0.3,0.5-0.5,1.1-0.7,1.6c-0.2,0.5-0.3,1-0.5,1.5c-0.3,0.7-0.9,1.1-1.7,1.1c-1,0-2,0-3-0.1c-1.8-0.1-2.5-0.7-3-2.5
			c-0.2-0.7-0.3-1.4-0.6-2.1c-0.4-0.9-1.1-1.3-2.1-1c-0.7,0.2-1.1,0.7-1.3,1.3c-0.3,0.7-0.5,1.5-0.8,2.2c-0.4,1.2-1.3,1.8-2.5,2
			c-0.9,0.1-1.8,0.1-2.8,0c-0.9,0-1.5-0.6-1.7-1.4c-0.2-0.8-0.3-1.5-0.3-2.3c0-2.2,0-4.5,0-6.7c0-4.1,0-8.1,0-12.2
			c0-0.6,0-1.2-0.2-1.8c-0.1-0.4-0.4-0.5-0.8-0.4c-0.4,0.1-0.7,0.4-1,0.6c-1,0.7-1.9,1.4-2.9,2.1c-1.1,0.8-2.2,1.5-3.3,2.2
			c-0.9,0.6-1.2,1.4-1.2,2.5c0.3,3.2,0.5,6.4,0.7,9.6c0.2,3.7,0.2,7.4,0.4,11c0,0.3,0,0.7,0.1,1c0.4,2.7,1.5,5,4.1,6.4
			c1.2,0.6,2.6,1,4,1c1.6,0,3.3,0,4.9,0c1.6,0,3.1-0.5,4.3-1.6c0.3-0.3,0.7-0.5,1.1-0.9c0.3,0.3,0.6,0.4,0.8,0.7
			c1.3,1.3,2.9,1.9,4.8,1.8c0.7,0,1.3,0,2,0c1.2,0,2.2-0.4,3-1.2c0.4-0.3,0.7-0.7,1.2-1.1c0.5,0.5,0.9,0.9,1.4,1.3
			c1.5,1.2,4.6,1.6,6.3-0.4c0.3-0.3,0.6-0.6,1-1c0.5,0.4,0.9,0.7,1.2,1.1c2,1.8,5.4,2,7.4-0.9c0.7-1,1.2-2.1,1.6-3.2
			c1.1-3,1.4-6.1,1.1-9.3c-0.1-1.5-0.5-3-1.1-4.4c-0.1-0.3-0.4-0.6-0.6-0.9C443.5,466.5,442.9,467.1,440.9,469.6z M58.7,483.2
			c0.3,0.3,0.6,0.5,0.9,0.8c1.2,1.2,2.7,1.8,4.4,1.8c1.6,0,3.3,0,4.9,0c1.8,0,3.3-0.8,4.5-2c1-1,1.7-2.2,2-3.6
			c0.6-2,0.8-4.1,0.7-6.2c-0.2-4.1-0.4-8.1-0.5-12.2c0-0.5-0.1-1.1,0.4-1.6c0.4,0,0.8,0,1.3-0.1c0.7-0.1,1-0.6,0.8-1.3
			c-0.1-0.4-0.2-0.8-0.4-1.1c-1.1-2.5-2.3-5-3.4-7.5c-0.1-0.3-0.3-0.6-0.5-0.8c-0.3-0.4-0.8-0.5-1.2-0.2c-0.4,0.3-0.8,0.6-1.2,1
			c-1.4,1.3-2.9,2.5-4.3,3.8c-0.4,0.4-0.8,0.8-1.2,1.2c0,0.4,0,0.6,0.1,0.9c1.1,3.8,1.8,7.7,2.5,11.5c0.3,1.6,0.5,3.2,0.6,4.9
			c0.1,1.2-0.4,1.7-1.6,1.8c-1.4,0.1-2.9,0.1-4.3,0c-1.3,0-2.2-0.8-2.6-2.1c-0.1-0.5-0.3-1-0.4-1.5c-0.1-0.3-0.2-0.6-0.3-0.9
			c-0.3-0.7-0.7-1.1-1.5-1.1c-0.8-0.1-1.4,0.3-1.8,1c-0.2,0.4-0.4,0.8-0.5,1.3c-0.2,0.5-0.3,1-0.5,1.5c-0.3,1.1-1.1,1.7-2.1,1.8
			c-2.3,0.4-4.5,0.2-6.3-1.5c-0.9-0.8-1.7-1.6-2.6-2.5c-0.3-0.3-0.7-0.5-1-0.7c-0.8,0.3-1,0.8-1.2,1.4c-1,2.1-2,4.1-3,6.2
			c-0.2,0.3-0.2,0.7-0.4,1.1c0.5,0.5,1,1,1.4,1.4c0.9,0.9,1.9,1.9,2.7,2.9c1.5,1.8,1.5,2.5-0.3,4.1c-0.7,0.6-1.4,1.2-2.1,1.8
			c-2.9,2.2-5.9,4.1-9.1,5.8c-0.4,0.2-0.8,0.4-1.2,0.7c-0.6,0.4-0.9,1-0.7,1.7c0.1,0.7,0.5,1.2,1.2,1.4c0.6,0.1,1.2,0.3,1.7,0.3
			c3.2,0,6.4,0,9.7,0c1.4,0,2.5-0.5,3.3-1.7c1.9-2.8,3.3-5.7,3.5-9.1c0-0.6-0.1-1.2,0.6-1.8c0.8,0,1.8,0,2.8,0
			c2.1,0.1,3.9-0.5,5.3-2C58.2,483.5,58.4,483.4,58.7,483.2z M527.6,477.8c0.4,0.8,1,1.2,1.5,1.7c1.1,1.2,2.2,2.3,3.2,3.5
			c0.9,1.1,0.8,1.8-0.1,2.8c-0.9,0.9-1.8,1.7-2.8,2.5c-2.9,2.2-5.9,4.1-9.1,5.8c-0.5,0.2-1,0.5-1.3,0.8c-1,0.9-0.7,2.4,0.5,2.9
			c0.5,0.2,1,0.3,1.5,0.3c3.5,0,7,0,10.4,0c1.1,0,2-0.5,2.7-1.4c2-2.8,3.5-5.8,3.7-9.4c0-0.5,0.1-1,0.2-1.5c0.9-0.3,1.8-0.2,2.6-0.2
			c1.5,0.1,2.8-0.4,3.9-1.6c0.2-0.3,0.6-0.4,0.9-0.7c0.4,0.4,0.7,0.7,1.1,1c2,1.7,4.7,1.6,6.6-0.2c0.3-0.3,0.6-0.6,1-0.9
			c0.6,0.5,1.1,1,1.6,1.4c2.1,1.6,4.8,1.3,6.5-0.7c0.7-0.8,1.2-1.7,1.6-2.7c0.8-1.7,1.2-3.6,1.4-5.5c0.3-2.8,0.3-5.5-0.6-8.2
			c-0.1-0.4-0.3-0.9-0.5-1.3c-0.3-0.6-0.8-0.8-1.3-0.3c-1.1,1.2-2.3,2.3-3.2,3.6c0.1,0.4,0.2,0.6,0.3,0.9c0.1,0.3,0.3,0.6,0.4,0.9
			c0.2,0.5,0.3,1,0.4,1.5c0.1,0.8-0.4,1.4-1.2,1.5c-1.7,0.3-2.5-0.3-3-2c-0.1-0.4-0.2-0.8-0.3-1.1c-0.1-0.4-0.3-0.9-0.5-1.3
			c-0.6-1.1-2.3-1.1-3,0c-0.3,0.5-0.4,1.1-0.6,1.7c-0.2,0.5-0.2,1-0.4,1.5c-0.3,0.9-1.1,1.3-2,1.1c-0.9-0.2-1.5-0.7-1.8-1.6
			c-0.2-0.9-0.5-1.8-0.9-2.6c-0.5-1-1.9-1.2-2.6-0.3c-0.4,0.5-0.7,1.1-0.9,1.7c-0.2,0.5-0.3,1.1-0.6,1.7c-0.3,0.7-0.8,1-1.5,1
			c-2.3,0-4.4-0.3-6.1-2.1c-0.7-0.8-1.5-1.5-2.2-2.2c-0.3-0.2-0.6-0.4-1.1-0.7c-0.2,0.3-0.4,0.6-0.6,0.9
			C530.1,472.6,528.8,475.2,527.6,477.8z M121.5,477.2c0.4,0.3,0.8,0.6,1.1,0.9c1.2,1.4,2.5,2.8,3.7,4.4c0.9,1.2,0.6,2.2-0.7,3
			c-0.6,0.4-1.3,0.6-2,0.8c-3.2,0.7-6.4,0.6-9.6,0.3c-1.1-0.1-2.2-0.5-3.2-0.9c-1.8-0.8-2.5-2.3-2.2-4.3c0.1-0.8,0.3-1.5,0.4-2.3
			c0-0.6,0-1.3-0.1-1.9c-0.1-0.9-0.6-1.5-1.5-1.7c-0.8-0.2-1.4,0.2-1.9,0.8c-0.5,0.7-1,1.4-1.3,2.2c-1.1,2.8-1.6,5.7-1.5,8.7
			c0,1.1,0.2,2.2,0.5,3.3c0.8,2.8,2.8,4.7,5.4,5.9c1.7,0.8,3.6,1.2,5.5,1.4c3.2,0.4,6.3,0.1,9.3-0.8c3.6-1.1,6.1-3.5,7.4-7.1
			c0.5-1.3,0.7-2.7,0.9-4c0.8-5.3-0.3-10.3-2.9-15c-0.4-0.7-1-1.4-1.6-2c-0.6-0.6-1.2-0.5-1.6,0.2
			C124.3,471.7,122.9,474.4,121.5,477.2z M222.8,486.2c-0.2,0.4-0.3,0.7-0.5,0.9c-0.7,0.6-1.5,1.3-2.3,1.8c-2.8,1.7-5.6,3.4-8.4,5.1
			c-0.5,0.3-0.9,0.5-1.4,0.7c-0.7,0.4-0.9,1.1-0.8,1.9c0.1,0.7,0.5,1.2,1.2,1.4c0.6,0.1,1.2,0.2,1.7,0.2c3.2,0,6.4,0,9.6,0
			c1.4,0,2.4-0.5,3.2-1.6c1.2-1.7,2.1-3.5,2.6-5.5c1.2-4.5,1.4-9.1,1.1-13.7c-0.1-1.9-0.5-3.8-1.1-5.6c-0.4-1.2-1-2.4-1.8-3.5
			c-2.1-2.9-6.8-3.3-9.1,0.1c-0.4,0.6-0.8,1.2-1.1,1.9c-1.5,3.2-2,6.6-1.7,10.2c0.3,3.3,2,4.9,5.3,5.2
			C220.5,485.8,221.6,485.8,222.8,486.2z M371.7,474.2c0.1-2.4-0.5-4.7-2.1-6.7c-2.5-3-5.6-4.7-9.4-5.1c-1.1-0.1-2.1,0.2-2.8,1.1
			c-0.6,0.9-1.2,1.9-1.6,2.9c-1.1,2.5-1.8,5.2-2.4,7.9c-0.3,1.4-0.4,2.9-0.3,4.3c0.3,4.1,2.8,6.2,5.6,6.7c1.1,0.2,2.2,0.3,3.3,0.3
			c4.1,0,7-1.9,8.7-5.6C371.4,478.2,371.8,476.3,371.7,474.2z M88.9,449.1c-0.4,0.3-0.8,0.5-1,0.7c-2.3,2.5-4.5,4.9-6.8,7.4
			c-0.4,0.5-0.6,1-0.5,1.6c0.1,0.4,0.1,0.8,0.1,1.2c0.7,4.7,1.5,9.5,2.2,14.2c0.5,2.8,1,5.6,1.6,8.3c0.2,0.9,0.6,1.7,1,2.5
			c0.4,0.8,1.4,0.8,2,0.2c0.3-0.3,0.6-0.7,0.8-1.1c0.4-0.8,0.8-1.5,1-2.3c1-3.3,1.6-6.6,1.6-10.1c0-2.9,0-5.8-0.1-8.7
			c-0.1-3.3-0.3-6.7-0.8-10c-0.1-1-0.4-2.1-0.7-3.1C89.4,449.7,89.1,449.5,88.9,449.1z M387.7,484.2c-0.2,1.1-0.8,1.7-1.4,2.3
			c-0.7,0.7-1.5,1.3-2.3,1.9c-2.8,2.1-5.7,4-8.8,5.6c-0.5,0.2-0.9,0.5-1.4,0.8c-0.6,0.4-0.8,1-0.7,1.7c0.1,0.7,0.5,1.2,1.2,1.4
			c0.4,0.1,0.9,0.2,1.3,0.3c3.5,0,7,0,10.4,0c1.1,0,2-0.5,2.7-1.3c1.6-2,2.7-4.2,3.4-6.6c1.1-4.1,1.1-8.3,0.3-12.5
			c-0.6-3.3-2.4-5.9-5-8.1c-0.2-0.2-0.4-0.2-0.7-0.4c-0.3,0.3-0.5,0.4-0.7,0.7c-1.3,2.6-2.7,5.2-3.8,7.9
			C384.2,480.1,386.6,481.7,387.7,484.2z M17.6,477.9c0.7,0.7,1.2,1.2,1.6,1.7c0.9,1,1.9,2,2.8,3c1.2,1.5,1.2,2.1-0.2,3.5
			c-0.7,0.7-1.5,1.4-2.4,2.1c-2.9,2.2-5.9,4.1-9.1,5.9c-0.5,0.2-1,0.5-1.3,0.8c-1,0.9-0.8,2.4,0.4,2.9c0.5,0.2,1,0.3,1.5,0.3
			c3.5,0,7,0,10.4,0c1.1,0,2-0.4,2.7-1.3c1.3-1.5,2.3-3.2,2.9-5.1c1.7-4.9,1.7-9.9,0.6-14.9c-0.7-2.9-2.5-5.2-4.7-7.1
			c-0.2-0.2-0.4-0.2-0.7-0.4c-0.2,0.2-0.5,0.3-0.6,0.5C20.3,472.4,19,475.1,17.6,477.9z M551.6,455.6c-1.6,1-3.2,2.6-4,4
			c0.6,1.1,1.6,1.8,2.5,2.7c0.9,0.9,1.3,0.8,2.2,0c0.6-0.6,1.1-1.3,1.9-1.6c1.2,0.5,1.8,1.9,3.1,2.3c1.3-0.7,2.2-1.8,3.1-2.9
			c0.3-0.4,0.2-0.9-0.1-1.3c-1.1-1.1-2-2.3-3.3-3c-0.1,0-0.1-0.2-0.1-0.3c0.3-0.5,0.6-1,0.8-1.5c-1-1.4-2.2-2.5-3.5-3.4
			c-1.3,0.7-2.7,2.1-3.7,3.6C550.9,454.6,551.2,455,551.6,455.6z M264.2,462c-0.5-0.5-0.9-1-1.3-1.4c-0.6-0.6-1.2-1.2-1.9-1.7
			c-0.5-0.4-1-0.4-1.4,0c-0.3,0.2-0.6,0.6-0.9,0.8c-0.4,0.4-0.7,0.9-1.6,1c-0.5-0.5-1.1-1.1-1.8-1.6c-0.7-0.6-1.2-0.7-1.9,0
			c-0.7,0.7-1.4,1.4-2.1,2.1c-0.2,0.3-0.4,0.6-0.5,0.9c1.5,1.9,2.6,2.9,3.8,3.4c1.1-0.5,1.6-1.8,2.8-2.3c1.2,0.6,1.8,1.8,3.1,2.3
			C261.9,464.6,263,463.4,264.2,462z M411.5,463c1.2-0.4,1.7-1.8,3-2.3c0.5,0.4,0.9,0.8,1.3,1.2c0.5,0.4,0.8,1,1.8,1.1
			c1.2-1,2.4-2.1,3.4-3.6c-1.1-1.4-2.3-2.6-3.7-3.5c-1.2,0.5-1.8,1.9-3.1,2.4c-0.6-0.6-1.2-1.1-1.9-1.7c-0.3-0.3-0.7-0.5-1.1-0.7
			c-1.3,1.2-2.6,2.1-3.4,3.7c0.3,0.4,0.6,0.8,0.9,1.1c0.7,0.7,1.5,1.5,2.3,2.2C411,462.9,411.3,462.9,411.5,463z M475.1,460.8
			c-0.3-0.2-0.6-0.3-0.8-0.5c-0.5-0.4-1-0.9-1.5-1.3c-0.7-0.6-1.1-0.6-1.9,0.1c-0.4,0.3-0.7,0.7-1.1,1.1c-1.8,1.8-1.8,1.8,0,3.5
			c0.7,0.7,1.3,1.5,2.2,1.8c1.2-0.5,1.7-1.9,2.9-2.3c1.1,0.6,1.7,1.8,2.9,2.4c1.3-0.8,2.3-2,3.3-3.1c0.3-0.3,0.2-0.8-0.1-1.1
			c-0.8-0.8-1.6-1.6-2.4-2.3c-0.7-0.7-1.2-0.6-1.9,0C476.3,459.6,475.7,460.2,475.1,460.8z M119.8,467.1c-1.2-1.1-2.3-2.2-3.4-3.3
			c-0.6-0.5-1-0.5-1.6,0c-1,0.9-1.9,1.8-2.8,2.8c-0.5,0.5-0.5,1,0,1.6c1,1,2.1,2,3.1,3c0.1,0.1,0.4,0.1,0.5,0.2
			C117,470.4,118.7,468.7,119.8,467.1z M307.9,459.4c-0.1-0.2-0.1-0.5-0.3-0.6c-1.1-1.1-2.1-2.1-3.2-3.1c-0.3-0.3-0.8-0.3-1.1,0
			c-1.1,1-2.1,2.1-3.1,3.2c-0.3,0.3-0.3,0.8,0,1.1c1,1.1,2.1,2.1,3.2,3.2c0.4,0.3,0.9,0.3,1.2,0c1-1,2-2,3-3.1
			C307.8,459.8,307.9,459.6,307.9,459.4z M20.2,465.5c1.5-1.1,2.6-2.4,3.8-3.6c0.3-0.3,0.3-0.8,0-1.1c-1.1-1.1-2.2-2.1-3.3-3.1
			c-0.4-0.3-0.9-0.3-1.2,0c-1,1-2,2-3,3.1c-0.3,0.4-0.3,0.9,0.1,1.3C17.6,463.2,18.7,464.4,20.2,465.5z M58.9,496.7
			c1.2-1.2,2.3-2.3,3.4-3.4c0.5-0.5,0.5-1,0-1.4c-1-1-2-2-3.1-3c-0.4-0.4-0.8-0.4-1.2,0c-1,0.9-1.9,1.8-2.8,2.8
			c-0.3,0.3-0.4,0.6-0.6,0.9C55.5,494,57.4,495.8,58.9,496.7z"/>
		<path d="M568.6,440c-0.7-0.1-1.4-0.1-2.1-0.2c-0.5-0.9-0.2-1.8-0.3-2.6c0.5-0.2,0.7,0.1,0.8,0.4c0.4,0.6,0.7,1.2,1.1,1.8
			c0.1,0.1,0.3,0.2,0.5,0.3C568.6,439.8,568.6,439.9,568.6,440z"/>
		<path d="M6.1,436.3c70.4-109.1,140.6-217.8,210.8-326.5c0.8,0.2,1.2,0.8,1.6,1.2c5.1,5.7,10.2,11.3,15.2,17.1
			c3.8,4.4,7.5,9,11.2,13.5c1.4,1.7,2.6,3.5,3.7,5.3c2.4,3.9,3.1,8.2,2.3,12.7c-0.3,1.8-0.8,3.6-1.3,5.4c-1.7,5.7-3.5,11.3-5.9,16.7
			c-1,2.4-2.2,4.6-3.7,6.7c-2.4,3.5-5.4,6.2-9.1,8.2c-3.6,1.9-7.4,3.1-11.2,4.3c-6.9,2-13.8,3.6-20.8,5.1c-5,1-10,2.2-15,3.3
			c-0.7,0.2-1.4,0.3-2.1,0.3c-4.8,0.4-8.1,2.8-10.2,7c-1.3,2.7-1.9,5.6-2,8.6c-0.1,1.6,0.1,3.1,0.2,4.7c0,0.4,0.1,0.8,0.1,1.2
			c0.3,6.6,0.6,13.1,0.9,19.7c0.3,7.3,0.5,14.6,0.8,21.9c0.1,2.5,0.2,5,0.4,7.5c0.2,2.1,0.4,4.2,1.1,6.2c1,3.2,3,5.4,6.1,6.5
			c1.5,0.5,3,0.9,4.6,1.2c1.7,0.3,3.4,0.5,5.1,0.5c3,0.1,6,0.1,9.1,0c2.5-0.1,5-0.4,7.5-0.6c3.5-0.3,6.9-0.6,10.4-0.9
			c2.4-0.2,4.8-0.5,7.3-0.6c3.3-0.1,6.7-0.2,10-0.2c3.3,0,6.6,0.3,9.8,0.8c3.7,0.6,6.8,2.2,9.4,4.9c2.4,2.5,4.5,5.3,6.3,8.3
			c1.7,2.9,3.3,6,5,9c1.2,2.2,2.4,4.5,3.6,6.8c0.9,1.7,1.9,3.5,2.7,5.2c2.1,4.4,2.2,9,0.5,13.6c-0.7,1.8-1.4,3.5-2.4,5.2
			c-1.9,3.4-3.8,6.8-5.9,10c-5.7,9.1-11.4,18.2-16.7,27.4c-1,1.6-1.8,3.3-2.6,5.1c-1.8,4.1-1.3,7.9,1.1,11.6c1.3,2,2.9,3.7,4.7,5.2
			c3.2,2.6,6.4,5.2,9.7,7.8c7.7,6.1,15.4,12.3,23.1,18.4c1.1,0.9,2.1,1.8,3.1,2.8c0.4,0.4,0.8,0.8,0.5,1.5c-0.7,0.4-1.5,0.5-2.4,0.5
			c-1.1,0-2.1,0-3.2,0c-90.3,0-180.6,0-270.9,0C7.8,436.3,7.2,436.3,6.1,436.3z"/>
		<path d="M344.6,80.5c0.3,0.5,0.6,0.9,0.9,1.4c8.6,14.5,22.4,38.8,23.1,40.6c-0.4,0.6-1.1,0.9-1.7,1.2c-4.8,2.9-9.5,6.1-13.9,9.7
			c-11.4,9.1-20.6,20-27.2,33c-4.3,8.3-7.3,17.1-8.9,26.4c-0.9,4.7-1.3,9.5-1.6,14.3c-0.3,4.3-0.1,8.7,0.2,13
			c0.6,8.1,2.1,16.1,4.4,23.9c5.7,19.5,15.4,36.9,28.9,52.1c12,13.5,26.2,24,42.9,31.1c7.8,3.3,15.9,5.7,24.3,7.2
			c3.9,0.7,7.8,1.1,11.7,1.4c3,0.2,5.9,0.3,8.9,0.3c3.7,0,7.3-0.3,11-0.7c3.9-0.4,7.8-1,11.7-1.8c8.2-1.7,16.2-4.1,23.9-7.3
			c3.3-1.4,6.5-2.8,9.7-4.3c0.6-0.3,1.2-0.5,1.7-0.8c0.7,0.2,0.8,0.9,1.1,1.4c5.1,10.2,10.2,20.4,15.3,30.6c1.5,3.1,3,6.1,4.6,9.2
			c0.3,0.6,0.6,1.3,1,2.1c-0.6,0.3-1,0.6-1.5,0.9c-9.6,4.7-19.5,8.7-29.8,11.9c-7.4,2.3-14.9,4.1-22.5,5.4c-3.3,0.6-6.6,0.9-9.9,1.3
			c-3.5,0.5-7.1,0.6-10.6,0.8c-3.3,0.2-6.6,0.3-9.8,0.2c-3.6-0.1-7.2-0.4-10.8-0.6c-2.9-0.2-5.9-0.5-8.8-0.9
			c-4.4-0.6-8.8-1.4-13.1-2.4c-27.6-6.5-51.7-19.4-72.8-38.2c-23.3-20.8-40.1-46.1-50.5-75.5c-2.9-8.2-5.2-16.6-6.8-25.2
			c-0.8-4.5-1.5-8.9-2-13.4c-0.7-6.9-1.2-13.9-1-20.8c0.1-3.3,0.4-6.7,0.6-10c0.2-2.5,0.5-5.1,0.8-7.6c0.9-7.3,2.5-14.5,4.5-21.5
			c6.4-21.9,17.6-41.1,33.2-57.7c11.1-11.9,23.9-21.7,37.9-29.9C343.8,80.9,344.2,80.7,344.6,80.5z"/>
		<path d="M366.3,437.6c-14.4,0-28.8,0-43.1,0c-1.8,0-3.7-0.1-5.5-0.4c-0.5-0.1-1-0.3-1.5-0.5c-0.6-0.3-0.8-0.9-0.5-1.5
			c0.2-0.5,0.5-0.9,0.9-1.3c0.6-0.7,1.3-1.3,2-1.9c1.8-1.3,3.6-2.6,5.4-3.9c1.1-0.8,2.3-1.6,3.3-2.4c6.9-5.6,13.8-11.2,20.6-16.8
			c3.1-2.5,6.5-4.4,10.5-5.2c3.2-0.7,6.4-0.7,9.6-0.4c5.7,0.7,11.1,2.4,16.5,4.2c5,1.7,10,3.4,15.2,4.8c1.8,0.5,3.4,1.5,4.7,2.7
			c4.5,4.2,7.9,9.1,10,14.9c0.4,1.2,0.6,2.4,0.9,3.6c0.1,0.3,0.1,0.5,0,0.8c-0.2,1.8-0.9,3.2-3.4,3.3c-0.6,0-1.2,0-1.8,0
			C395.6,437.6,380.9,437.6,366.3,437.6z"/>
		<path d="M332.7,64.6c0.1,1.6-0.3,2.8-1.2,3.8c-2.4,3-5.5,4.7-9.3,4.7c-2,0-4-0.4-5.6-1.5c-9.8-6.3-20.1-11.6-30.2-17.4
			c-5.3-3-10.4-6.2-15.4-9.5c-0.9-0.6-1.7-1.2-2.6-1.8c-0.6-0.5-1.2-1-1.8-1.5c-1.6-1.5-2.1-3.3-1.2-5.4c0.6-1.5,1.3-3,2.2-4.4
			c1.6-2.8,3.3-5.5,5-8.2c3.3-5.3,6.5-10.6,9.8-15.9c1-1.6,2-3.1,3.1-4.5c0.5-0.7,1.2-1.4,2-1.9c1.1-0.8,2.3-0.8,3.3,0
			c0.9,0.7,1.7,1.5,2.3,2.4c1.1,1.4,2.2,3,3.2,4.5c11.1,16.5,22.2,33.1,33.2,49.6c0.8,1.2,1.6,2.4,2.3,3.7
			C332.4,62.3,332.9,63.4,332.7,64.6z"/>
		<path d="M565.8,439.8c-0.6,0.1-0.9,0.1-1.2,0.1c-18.2,0-36.4,0-54.7,0c-0.1-0.5-0.2-0.8-0.2-1.2c0.1-1.7,0.2-3.4,0.3-5.1
			c0.2-3.7,0.4-7.5,0.6-11.2c0-0.5,0.1-0.9,0.1-1.4c0.2-3.6,0.3-7.2,0.5-10.8c0-0.8,0.1-1.5,0.7-2.2c3.6-4.1,7.2-8.2,11.5-11.6
			c1.8-1.4,3.7-2.7,5.8-3.7c1.4-0.6,2.8-1.1,4.4-1.1c2.7,0,4.8,1,6.3,3.4c7.7,12.1,15.4,24.1,23.1,36.2c0.7,1.1,1.4,2.2,2.1,3.3
			c0.6,0.8,0.9,1.8,0.8,2.8C565.8,438,565.8,438.8,565.8,439.8z"/>
		<path d="M292.6,473.7c0.5,0.2,0.6,0.3,0.8,0.3c1.9,0,3.8,0.1,5.7,0c1.4,0,2.3-0.8,2.7-2.2c0.2-0.6,0.4-1.3,0.6-1.9
			c0.1-0.4,0.3-0.7,0.6-1c0.8-0.9,2.3-0.8,2.8,0.3c0.4,0.8,0.5,1.6,0.8,2.4c0.5,1.6,1.2,2.2,2.8,2.3c1,0.1,2,0,3,0
			c0.9,0,1.5-0.5,1.8-1.2c0.3-0.8,0.6-1.6,0.9-2.4c0.3-0.8,0.6-1.7,1.6-1.7c1,0,1.3,1,1.7,1.7c0.2,0.5,0.3,1.1,0.6,1.7
			c0.2,0.6,0.4,1.3,1.2,1.6c0.2-0.1,0.5-0.3,0.7-0.5c0.7-0.8,1.4-1.6,2-2.4c1.6-1.9,3.3-3.7,5.3-5.3c1.4-1.1,3-2,4.7-2.4
			c1.4-0.3,2.9-0.4,4.3,0.2c2.5,1,3.9,2.9,4.2,5.5c0.2,1.9,0,3.8-0.7,5.6c-1.3,3.5-3.3,6.5-6.4,8.5c-5,3.3-10.3,3.4-15.7,0.9
			c-0.4-0.2-0.8-0.4-1.2-0.6c-0.1,0-0.1,0-0.3,0c-0.4,0.3-0.8,0.7-1.2,1.1c-1,0.9-2.1,1.4-3.4,1.4c-0.7,0-1.4,0-2.2,0
			c-1.8,0.1-3.3-0.5-4.6-1.8c-0.2-0.2-0.5-0.4-0.8-0.7c-0.4,0.3-0.8,0.5-1.1,0.8c-1.2,1.1-2.7,1.6-4.3,1.6c-1.6,0-3.2,0-4.7,0
			c-2.4-0.1-4.7-0.7-6.4-2.6c-0.1-0.1-0.3-0.2-0.6-0.3c-0.3,0.3-0.7,0.6-1,0.9c-1.2,1.3-2.8,1.9-4.6,2c-2,0.1-3.9,0.1-5.9,0
			c-1.6-0.1-2.9-0.8-4-2c-0.4-0.5-0.8-1-1.3-1.6c-0.4,0.2-0.7,0.3-1,0.5c-3.6,2.7-7.7,3.8-12.1,4.2c-2.4,0.2-4.8,0.3-7.3,0
			c-1.4-0.2-2.8-0.5-4.2-1.1c-2.1-0.9-3.6-2.5-4.4-4.5c-0.5-1.3-0.9-2.6-1-4c-0.1-2.6-0.1-5.1,0.8-7.6c0.2-0.7,0.5-1.4,1-1.9
			c1-1.2,2.5-0.9,3.1,0.6c0.1,0.3,0.1,0.6,0.2,1c0.1,0.5,0.2,1,0.2,1.6c0.2,2.4,1.6,3.8,3.9,4.4c1.4,0.3,2.8,0.6,4.3,0.7
			c3.6,0.2,7.2-0.1,10.7-1c2.9-0.7,5.5-2.2,7.6-4.4c0.4-0.5,0.9-0.9,1.4-1.4c0.5-0.4,1.1-0.5,1.7-0.2c0.6,0.3,0.9,0.8,0.8,1.5
			c0,0.6-0.2,1.2-0.3,1.7c-0.1,0.6-0.5,1.1-0.2,1.7c1.6,0.4,5.6,0.4,7.3-0.1c-0.1-0.3-0.2-0.6-0.4-0.8c-0.7-0.9-1.5-1.7-2.5-2.1
			c-1.1-0.5-1.3-1.3-1.2-2.4c0.1-1.1,0.6-2,1.3-2.8c1.3-1.5,3-2.6,4.9-3c2.4-0.5,4.7-0.5,6.9,0.6c0.7,0.3,1.4,0.8,2,1.3
			c1.4,1.2,2.3,3.5,1,5.7c-0.4,0.8-1,1.5-1.6,2.2C293.4,472.8,293.1,473.2,292.6,473.7z M325.1,474.7c0.1,0.5,0.6,0.4,1,0.4
			c2.2,0,4.3-0.3,6.4-0.8c0.4-0.1,0.9-0.3,1.3-0.5c0.8-0.4,1-1.2,0.5-2c-0.3-0.3-0.7-0.6-1.1-0.8c-0.3-0.2-0.8-0.2-1.1-0.2
			c-0.9,0-1.7,0.1-2.5,0.4C327.8,472.1,326.1,473.4,325.1,474.7z"/>
		<path d="M151,480.6c-0.3,0.4-0.6,0.7-0.8,1c-0.6,0.7-1.1,1.5-1.7,2.2c-1.6,1.8-3.6,2.7-5.9,2.7c-0.9,0-1.7,0-2.6-0.1
			c-3-0.6-4.7-2.5-5.4-5.3c-0.7-2.8-0.4-5.5,0.4-8.2c0.2-0.6,0.5-1.1,0.8-1.6c0.8-1.1,2.2-1,3,0.1c0.3,0.5,0.5,1.1,0.7,1.6
			c0.4,1.7,1.5,2.4,3.1,2.5c1.7,0.1,3.3-0.2,4.8-0.9c0.7-0.3,0.8-0.7,0.5-1.5c-0.8-2-1.7-4-2.5-6c-0.3-0.8-0.7-1.6-1-2.4
			c-0.2-0.5-0.2-0.9,0.2-1.3c1.7-1.7,3.4-3.4,5.2-5.1c0.1-0.1,0.4-0.1,0.5-0.2c0.7,0.2,0.8,0.8,1,1.4c1.3,3.5,2.6,7,3.8,10.5
			c0.2,0.7,0.5,1.4,0.8,2c0.6,1.4,1.7,2.1,3.3,2.1c1.6-0.1,3.2,0,4.7,0c0.4,0,0.9-0.1,1.5-0.3c-0.2-0.4-0.3-0.7-0.5-1
			c-0.7-0.9-1.5-1.6-2.6-2.1c-1.1-0.5-1.3-1.4-1.2-2.4c0.1-1,0.5-1.9,1.2-2.7c1.4-1.7,3.1-2.8,5.3-3.2c2.7-0.6,5.4-0.3,7.8,1.2
			c2,1.3,2.8,3.2,2.3,5.4c-0.2,0.7-0.5,1.3-0.9,1.9c-0.4,0.6-0.9,1.1-1.4,1.7c-0.2,0.3-0.4,0.6-0.7,1.1c0.4,0.1,0.6,0.3,0.8,0.3
			c1.5,0,3,0,4.5,0c0.3,0,0.5,0,0.8-0.1c0.8-0.2,1.3-0.6,1.4-1.4c0.1-0.7,0.2-1.4,0.4-2.1c0.9-2.9,2.7-4.8,5.7-5.3
			c2.9-0.5,5.3,0.5,7.1,2.8c1.4,1.8,2.2,3.9,2.6,6.1c0.3,1.9,0.7,3.9,0.1,5.9c-0.5,1.8-1.4,3.2-2.8,4.4c-2.3,2-6.7,2-9.1-0.1
			c-0.2-0.2-0.5-0.4-0.7-0.7c-0.2-0.2-0.5-0.4-0.8-0.7c-0.4,0.4-0.8,0.7-1.1,1.1c-1,1.2-2.2,1.8-3.8,1.7c-1.8-0.1-3.5,0.1-5.3-0.3
			c-1.6-0.4-3.1-1-4.3-2.3c-0.1-0.1-0.3-0.2-0.6-0.4c-0.3,0.3-0.7,0.5-1,0.8c-1.4,1.4-3,2.1-4.9,2.1c-1.8,0.1-3.5,0-5.3,0
			c-2,0-3.7-0.7-5.1-2.2c-0.6-0.6-1.1-1.3-1.6-2C151.6,481.3,151.3,481,151,480.6z M194.1,475.5c-0.1-1.1-0.5-2.5-1.4-3.7
			c-0.2-0.2-0.3-0.4-0.6-0.5c-0.8-0.5-1.9-0.2-2,0.7c-0.3,2,0.3,3.8,1.7,5.2c0.4,0.5,1,0.6,1.6,0.3c0.5-0.2,0.6-0.8,0.7-1.3
			C194.1,476.1,194.1,475.9,194.1,475.5z"/>
		<path d="M493.4,473.8c1.6,0.3,6.2,0.4,8.5,0.2c0.7-0.1,1.3-0.2,1.9-0.7c-0.1-0.3-0.1-0.7-0.4-1c-0.7-0.9-1.5-1.8-2.3-2.6
			c-1.2-1.2-2.5-2.3-3.8-3.5c-0.5-0.4-1-0.9-1.5-1.3c0.4-2.5,0.8-4.9,1.2-7.3c0.2-1,0.8-1.5,1.8-1.9c3.1-1,6.1-2,9.2-3
			c2.6-0.8,5.1-1.7,7.7-2.5c0.4-0.1,0.9-0.1,1.2-0.2c0.5,0.7,0.3,1.4,0.2,2c-0.2,2-0.5,4-0.7,6.1c-0.1,1-0.5,1.6-1.5,1.8
			c-2.1,0.7-4.3,1.3-6.4,2c-0.6,0.2-1.2,0.4-1.9,0.7c0.1,0.4,0.2,0.7,0.3,1c0.5,0.7,1,1.4,1.5,2.1c2.5,4,3,8.2,1.7,12.7
			c-0.9,3.1-2.9,5.2-5.9,6.4c-1.3,0.5-2.8,0.9-4.2,0.9c-1.8,0-3.7,0-5.5,0c-2.1,0-3.8-0.8-5.1-2.4c-0.3-0.4-0.7-0.8-1.1-1.2
			c-0.5,0.3-0.9,0.5-1.2,0.8c-3.4,2.5-7.3,3.6-11.4,4c-0.9,0.1-1.8,0.1-2.7,0.2c-2.5,0.2-5,0-7.4-0.7c-4-1.1-6.2-3.7-6.9-7.7
			c-0.6-2.9-0.3-5.8,0.5-8.6c0.2-0.9,0.5-1.8,1.2-2.5c0.9-1,2.3-0.8,2.9,0.4c0.2,0.5,0.3,1.1,0.4,1.7c0.3,3.9,1.7,4.9,4.9,5.7
			c0.8,0.2,1.6,0.3,2.3,0.4c4.5,0.4,8.9,0,13.2-1.3c2.2-0.7,4.2-1.9,5.8-3.6c0.6-0.6,1.1-1.1,1.7-1.6c0.5-0.5,1.1-0.7,1.8-0.3
			c0.6,0.3,0.7,0.9,0.7,1.5c0,0.6-0.1,1.2-0.3,1.7C493.7,472.7,493.6,473.2,493.4,473.8z"/>
		<path d="M440.9,469.6c2-2.5,2.6-3.1,3.9-3.9c0.2,0.3,0.5,0.5,0.6,0.9c0.6,1.4,1,2.9,1.1,4.4c0.3,3.2,0,6.3-1.1,9.3
			c-0.4,1.1-0.9,2.2-1.6,3.2c-2,2.9-5.4,2.7-7.4,0.9c-0.4-0.3-0.8-0.7-1.2-1.1c-0.4,0.4-0.7,0.6-1,1c-1.7,2-4.8,1.6-6.3,0.4
			c-0.4-0.4-0.9-0.8-1.4-1.3c-0.4,0.4-0.8,0.7-1.2,1.1c-0.9,0.8-1.8,1.2-3,1.2c-0.7,0-1.3,0-2,0c-1.9,0.1-3.5-0.5-4.8-1.8
			c-0.2-0.2-0.5-0.4-0.8-0.7c-0.4,0.3-0.8,0.6-1.1,0.9c-1.2,1.1-2.7,1.6-4.3,1.6c-1.6,0-3.3,0-4.9,0c-1.4,0-2.7-0.4-4-1
			c-2.6-1.3-3.7-3.6-4.1-6.4c0-0.3,0-0.7-0.1-1c-0.1-3.7-0.2-7.4-0.4-11c-0.2-3.2-0.4-6.4-0.7-9.6c-0.1-1.1,0.2-1.9,1.2-2.5
			c1.1-0.7,2.2-1.5,3.3-2.2c1-0.7,1.9-1.4,2.9-2.1c0.3-0.2,0.7-0.4,1-0.6c0.3-0.1,0.7,0,0.8,0.4c0.1,0.6,0.2,1.2,0.2,1.8
			c0,4.1,0,8.1,0,12.2c0,2.2,0,4.5,0,6.7c0,0.8,0.1,1.6,0.3,2.3c0.2,0.8,0.8,1.4,1.7,1.4c0.9,0.1,1.8,0.1,2.8,0
			c1.2-0.1,2.1-0.8,2.5-2c0.2-0.7,0.5-1.5,0.8-2.2c0.2-0.6,0.6-1.2,1.3-1.3c0.9-0.2,1.7,0.1,2.1,1c0.3,0.7,0.4,1.4,0.6,2.1
			c0.5,1.8,1.2,2.4,3,2.5c1,0.1,2,0.1,3,0.1c0.8,0,1.4-0.4,1.7-1.1c0.2-0.5,0.3-1,0.5-1.5c0.2-0.5,0.4-1.1,0.7-1.6
			c0.8-1.2,2.4-1.1,3,0.3c0.3,0.8,0.5,1.6,0.8,2.4c0.3,1,1.1,1.5,2,1.6c0.8,0.1,1.4-0.3,1.7-1c0.2-0.5,0.3-1,0.4-1.5
			c0.1-0.5,0.3-1,0.5-1.5c0.3-0.7,0.9-1.1,1.7-1.1c0.7,0,1.3,0.4,1.5,1.1c0.3,0.7,0.4,1.5,0.6,2.3c0.5,1.6,1.2,2.1,2.9,1.9
			c1-0.1,1.5-0.8,1.3-1.8c-0.1-0.6-0.3-1.1-0.5-1.7C441.3,470.6,441.1,470.1,440.9,469.6z"/>
		<path d="M58.7,483.2c-0.3,0.2-0.5,0.3-0.7,0.5c-1.5,1.5-3.3,2.1-5.3,2c-1,0-2,0-2.8,0c-0.7,0.6-0.6,1.2-0.6,1.8
			c-0.2,3.4-1.6,6.3-3.5,9.1c-0.8,1.2-1.9,1.7-3.3,1.7c-3.2,0-6.4,0-9.7,0c-0.6,0-1.2-0.1-1.7-0.3c-0.7-0.2-1.1-0.8-1.2-1.4
			c-0.1-0.7,0.2-1.3,0.7-1.7c0.4-0.3,0.8-0.5,1.2-0.7c3.2-1.7,6.2-3.7,9.1-5.8c0.7-0.5,1.4-1.1,2.1-1.8c1.7-1.7,1.8-2.3,0.3-4.1
			c-0.8-1-1.8-1.9-2.7-2.9c-0.5-0.5-0.9-0.9-1.4-1.4c0.1-0.4,0.2-0.8,0.4-1.1c1-2.1,2-4.1,3-6.2c0.3-0.5,0.5-1.1,1.2-1.4
			c0.3,0.2,0.7,0.4,1,0.7c0.9,0.8,1.7,1.6,2.6,2.5c1.8,1.7,4,1.8,6.3,1.5c1-0.2,1.8-0.8,2.1-1.8c0.2-0.5,0.3-1,0.5-1.5
			c0.2-0.4,0.3-0.9,0.5-1.3c0.4-0.7,1-1,1.8-1c0.7,0.1,1.2,0.5,1.5,1.1c0.1,0.3,0.2,0.6,0.3,0.9c0.1,0.5,0.3,1,0.4,1.5
			c0.4,1.3,1.2,2,2.6,2.1c1.4,0.1,2.9,0.1,4.3,0c1.2-0.1,1.6-0.6,1.6-1.8c-0.1-1.6-0.3-3.3-0.6-4.9c-0.7-3.9-1.4-7.7-2.5-11.5
			c-0.1-0.2,0-0.5-0.1-0.9c0.4-0.4,0.8-0.8,1.2-1.2c1.4-1.3,2.8-2.5,4.3-3.8c0.4-0.3,0.8-0.7,1.2-1c0.4-0.3,0.9-0.2,1.2,0.2
			c0.2,0.3,0.4,0.5,0.5,0.8c1.1,2.5,2.3,5,3.4,7.5c0.2,0.4,0.3,0.7,0.4,1.1c0.2,0.7-0.1,1.2-0.8,1.3c-0.4,0.1-0.9,0.1-1.3,0.1
			c-0.6,0.5-0.4,1-0.4,1.6c0.2,4.1,0.4,8.1,0.5,12.2c0.1,2.1-0.1,4.2-0.7,6.2c-0.4,1.3-1.1,2.5-2,3.6c-1.2,1.3-2.7,2-4.5,2
			c-1.6,0-3.3,0-4.9,0c-1.7,0-3.2-0.6-4.4-1.8C59.3,483.7,59,483.4,58.7,483.2z"/>
		<path d="M527.6,477.8c1.2-2.6,2.5-5.1,3.7-7.7c0.1-0.3,0.4-0.5,0.6-0.9c0.5,0.3,0.9,0.5,1.1,0.7c0.8,0.7,1.5,1.5,2.2,2.2
			c1.7,1.8,3.8,2.1,6.1,2.1c0.7,0,1.3-0.4,1.5-1c0.2-0.5,0.3-1.1,0.6-1.7c0.3-0.6,0.5-1.2,0.9-1.7c0.7-0.9,2.1-0.7,2.6,0.3
			c0.4,0.8,0.6,1.7,0.9,2.6c0.3,0.9,0.9,1.4,1.8,1.6c1,0.2,1.7-0.2,2-1.1c0.2-0.5,0.2-1,0.4-1.5c0.2-0.6,0.3-1.2,0.6-1.7
			c0.6-1.1,2.3-1,3,0c0.2,0.4,0.3,0.9,0.5,1.3c0.1,0.4,0.2,0.8,0.3,1.1c0.5,1.7,1.3,2.3,3,2c0.8-0.1,1.3-0.7,1.2-1.5
			c-0.1-0.5-0.2-1-0.4-1.5c-0.1-0.3-0.2-0.6-0.4-0.9c-0.1-0.2-0.2-0.5-0.3-0.9c0.9-1.3,2.1-2.4,3.2-3.6c0.4-0.4,1-0.3,1.3,0.3
			c0.2,0.4,0.3,0.9,0.5,1.3c0.9,2.7,1,5.4,0.6,8.2c-0.2,1.9-0.6,3.8-1.4,5.5c-0.5,0.9-1,1.9-1.6,2.7c-1.7,2-4.4,2.3-6.5,0.7
			c-0.5-0.4-1-0.8-1.6-1.4c-0.3,0.3-0.7,0.6-1,0.9c-1.9,1.8-4.5,1.9-6.6,0.2c-0.3-0.3-0.7-0.6-1.1-1c-0.3,0.2-0.7,0.4-0.9,0.7
			c-1.1,1.1-2.3,1.6-3.9,1.6c-0.8,0-1.7-0.1-2.6,0.2c-0.1,0.5-0.2,1-0.2,1.5c-0.2,3.5-1.7,6.6-3.7,9.4c-0.7,0.9-1.6,1.4-2.7,1.4
			c-3.5,0-7,0-10.4,0c-0.5,0-1.1-0.1-1.5-0.3c-1.2-0.5-1.5-2-0.5-2.9c0.4-0.3,0.9-0.6,1.3-0.8c3.2-1.7,6.2-3.7,9.1-5.8
			c1-0.7,1.9-1.6,2.8-2.5c1-1,1-1.7,0.1-2.8c-1-1.2-2.1-2.3-3.2-3.5C528.6,479,528,478.6,527.6,477.8z"/>
		<path d="M121.5,477.2c1.4-2.8,2.8-5.5,4.2-8.2c0.4-0.8,1-0.9,1.6-0.2c0.6,0.6,1.2,1.3,1.6,2c2.7,4.7,3.7,9.6,2.9,15
			c-0.2,1.4-0.5,2.7-0.9,4c-1.3,3.6-3.7,6-7.4,7.1c-3,0.9-6.2,1.2-9.3,0.8c-1.9-0.2-3.8-0.6-5.5-1.4c-2.6-1.2-4.6-3.1-5.4-5.9
			c-0.3-1.1-0.5-2.2-0.5-3.3c-0.1-3,0.5-5.9,1.5-8.7c0.3-0.8,0.8-1.5,1.3-2.2c0.4-0.6,1.1-1,1.9-0.8c0.9,0.2,1.3,0.8,1.5,1.7
			c0.1,0.6,0.1,1.3,0.1,1.9c-0.1,0.8-0.3,1.6-0.4,2.3c-0.3,2,0.4,3.5,2.2,4.3c1,0.5,2.1,0.8,3.2,0.9c3.2,0.3,6.4,0.4,9.6-0.3
			c0.7-0.2,1.4-0.4,2-0.8c1.3-0.7,1.5-1.8,0.7-3c-1.1-1.5-2.4-2.9-3.7-4.4C122.3,477.8,121.9,477.5,121.5,477.2z"/>
		<path d="M222.8,486.2c-1.2-0.3-2.3-0.4-3.4-0.5c-3.3-0.3-5-1.9-5.3-5.2c-0.3-3.5,0.2-6.9,1.7-10.2c0.3-0.7,0.7-1.3,1.1-1.9
			c2.3-3.3,6.9-3,9.1-0.1c0.8,1.1,1.3,2.2,1.8,3.5c0.6,1.8,1,3.7,1.1,5.6c0.3,4.6,0.1,9.2-1.1,13.7c-0.5,2-1.4,3.8-2.6,5.5
			c-0.8,1.1-1.8,1.6-3.2,1.6c-3.2,0-6.4,0-9.6,0c-0.6,0-1.2-0.1-1.7-0.2c-0.7-0.2-1.1-0.7-1.2-1.4c-0.1-0.8,0.1-1.4,0.8-1.9
			c0.4-0.3,0.9-0.5,1.4-0.7c2.8-1.7,5.6-3.3,8.4-5.1c0.8-0.5,1.6-1.2,2.3-1.8C222.5,486.9,222.6,486.6,222.8,486.2z M222.9,476.2
			c-0.5-0.9-0.8-1.1-1.7-1.3c-0.7-0.2-1.3-0.1-1.9,0.3c-0.1,0.1-0.2,0.2-0.2,0.3c-0.2,0.2,0,0.7,0.2,0.9
			C220.1,476.6,221.7,476.6,222.9,476.2z"/>
		<path d="M371.7,474.2c0,2.1-0.3,4-1.2,5.8c-1.7,3.7-4.6,5.6-8.7,5.6c-1.1,0-2.2-0.1-3.3-0.3c-2.8-0.5-5.3-2.6-5.6-6.7
			c-0.1-1.4,0-2.9,0.3-4.3c0.6-2.7,1.3-5.3,2.4-7.9c0.4-1,1-2,1.6-2.9c0.6-0.9,1.6-1.3,2.8-1.1c3.8,0.4,7,2.2,9.4,5.1
			C371.2,469.4,371.9,471.7,371.7,474.2z M362.7,475.8c0.9-0.2,1.8-0.3,2.7-0.5c0.8-0.2,0.9-1,0.2-1.5c-1.5-1-3.1-1.7-4.9-2
			c-0.3,0-0.7,0-0.9,0.2c-0.7,0.4-0.8,1.2-0.8,1.9c0,0.7,0.4,1.1,1,1.3C360.9,475.4,361.8,475.6,362.7,475.8z"/>
		<path d="M88.9,449.1c0.2,0.4,0.5,0.6,0.6,0.9c0.3,1,0.5,2,0.7,3.1c0.5,3.3,0.7,6.7,0.8,10c0.1,2.9,0,5.8,0.1,8.7
			c0,3.4-0.6,6.8-1.6,10.1c-0.2,0.8-0.6,1.6-1,2.3c-0.2,0.4-0.5,0.8-0.8,1.1c-0.6,0.6-1.6,0.6-2-0.2c-0.5-0.8-0.8-1.6-1-2.5
			c-0.6-2.8-1.1-5.5-1.6-8.3c-0.8-4.7-1.5-9.5-2.2-14.2c-0.1-0.4-0.1-0.8-0.1-1.2c-0.1-0.6,0.1-1.2,0.5-1.6c2.3-2.5,4.5-4.9,6.8-7.4
			C88.1,449.6,88.5,449.4,88.9,449.1z"/>
		<path d="M387.7,484.2c-1.1-2.4-3.4-4.1-5.3-6.2c1.1-2.7,2.5-5.3,3.8-7.9c0.1-0.3,0.4-0.5,0.7-0.7c0.3,0.1,0.6,0.2,0.7,0.4
			c2.5,2.1,4.3,4.8,5,8.1c0.8,4.2,0.7,8.4-0.3,12.5c-0.6,2.4-1.8,4.7-3.4,6.6c-0.7,0.9-1.6,1.3-2.7,1.3c-3.5,0-7,0-10.4,0
			c-0.5,0-0.9-0.1-1.3-0.3c-0.7-0.2-1.1-0.7-1.2-1.4c-0.1-0.7,0.1-1.3,0.7-1.7c0.4-0.3,0.9-0.5,1.4-0.8c3.1-1.7,6-3.6,8.8-5.6
			c0.8-0.6,1.5-1.2,2.3-1.9C386.9,485.9,387.4,485.3,387.7,484.2z"/>
		<path d="M17.6,477.9c1.4-2.8,2.7-5.5,4-8.1c0.1-0.2,0.4-0.3,0.6-0.5c0.3,0.1,0.5,0.2,0.7,0.4c2.2,2,4,4.2,4.7,7.1
			c1.1,5,1.1,10-0.6,14.9c-0.6,1.9-1.6,3.6-2.9,5.1c-0.7,0.9-1.6,1.3-2.7,1.3c-3.5,0-7,0-10.4,0c-0.5,0-1.1-0.1-1.5-0.3
			c-1.2-0.5-1.4-2.1-0.4-2.9c0.4-0.3,0.9-0.6,1.3-0.8c3.2-1.7,6.2-3.7,9.1-5.9c0.8-0.6,1.6-1.3,2.4-2.1c1.4-1.4,1.5-2,0.2-3.5
			c-0.9-1.1-1.9-2-2.8-3C18.8,479.1,18.3,478.6,17.6,477.9z"/>
		<path d="M551.6,455.6c-0.4-0.6-0.7-1-1.1-1.5c1-1.5,2.4-2.9,3.7-3.6c1.3,0.9,2.4,2.1,3.5,3.4c-0.3,0.5-0.6,1-0.8,1.5
			c0,0.1,0.1,0.3,0.1,0.3c1.3,0.8,2.3,1.9,3.3,3c0.4,0.4,0.5,0.9,0.1,1.3c-0.9,1.1-1.8,2.2-3.1,2.9c-1.4-0.4-1.9-1.8-3.1-2.3
			c-0.9,0.3-1.3,1.1-1.9,1.6c-0.9,0.8-1.3,0.8-2.2,0c-0.9-0.9-1.9-1.6-2.5-2.7C548.4,458.2,550,456.6,551.6,455.6z M553.5,457.6
			c0.2,0.3,0.2,0.5,0.3,0.5c0.1,0.1,0.4,0.1,0.5,0.1c0.1,0,0.2-0.3,0.2-0.3c-0.1-0.1-0.3-0.3-0.4-0.3
			C553.9,457.6,553.8,457.6,553.5,457.6z"/>
		<path d="M264.2,462c-1.2,1.4-2.3,2.6-3.6,3.6c-1.3-0.5-1.8-1.8-3.1-2.3c-1.2,0.4-1.7,1.7-2.8,2.3c-1.2-0.5-2.3-1.5-3.8-3.4
			c0.2-0.3,0.3-0.7,0.5-0.9c0.7-0.7,1.4-1.4,2.1-2.1c0.7-0.6,1.1-0.6,1.9,0c0.6,0.5,1.3,1.1,1.8,1.6c0.9,0,1.2-0.6,1.6-1
			c0.3-0.3,0.5-0.6,0.9-0.8c0.5-0.4,1-0.4,1.4,0c0.6,0.6,1.3,1.1,1.9,1.7C263.3,461,263.7,461.5,264.2,462z"/>
		<path d="M411.5,463c-0.2-0.1-0.4-0.1-0.5-0.2c-0.8-0.7-1.5-1.4-2.3-2.2c-0.3-0.3-0.6-0.7-0.9-1.1c0.8-1.5,2.1-2.5,3.4-3.7
			c0.4,0.2,0.8,0.4,1.1,0.7c0.6,0.5,1.3,1.1,1.9,1.7c1.3-0.5,1.8-1.8,3.1-2.4c1.4,0.9,2.6,2.1,3.7,3.5c-1,1.5-2.2,2.6-3.4,3.6
			c-0.9-0.1-1.3-0.7-1.8-1.1c-0.4-0.4-0.9-0.8-1.3-1.2C413.1,461.1,412.7,462.5,411.5,463z"/>
		<path d="M475.1,460.8c0.6-0.6,1.2-1.2,1.9-1.7c0.7-0.6,1.2-0.7,1.9,0c0.8,0.7,1.6,1.5,2.4,2.3c0.3,0.3,0.4,0.8,0.1,1.1
			c-1,1.1-1.9,2.3-3.3,3.1c-1.2-0.5-1.8-1.8-2.9-2.4c-1.2,0.5-1.7,1.8-2.9,2.3c-1-0.3-1.5-1.1-2.2-1.8c-1.8-1.7-1.8-1.7,0-3.5
			c0.4-0.4,0.7-0.8,1.1-1.1c0.7-0.7,1.1-0.7,1.9-0.1c0.5,0.4,1,0.9,1.5,1.3C474.5,460.5,474.7,460.6,475.1,460.8z"/>
		<path d="M119.8,467.1c-1.1,1.7-2.8,3.4-4.1,4.2c-0.2-0.1-0.4-0.1-0.5-0.2c-1-1-2.1-2-3.1-3c-0.5-0.5-0.5-1,0-1.6
			c0.9-1,1.8-1.9,2.8-2.8c0.5-0.5,1-0.5,1.6,0C117.5,464.8,118.6,465.9,119.8,467.1z"/>
		<path d="M307.9,459.4c-0.1,0.2-0.1,0.5-0.3,0.7c-1,1-2,2.1-3,3.1c-0.4,0.4-0.9,0.4-1.2,0c-1.1-1-2.1-2.1-3.2-3.2
			c-0.3-0.3-0.3-0.8,0-1.1c1-1.1,2.1-2.2,3.1-3.2c0.3-0.3,0.8-0.3,1.1,0c1.1,1,2.2,2.1,3.2,3.1C307.8,458.9,307.8,459.1,307.9,459.4
			z"/>
		<path d="M20.2,465.5c-1.5-1.1-2.6-2.3-3.7-3.4c-0.4-0.4-0.4-0.9-0.1-1.3c1-1.1,2-2.1,3-3.1c0.4-0.4,0.9-0.4,1.2,0
			c1.1,1,2.2,2.1,3.3,3.1c0.3,0.3,0.3,0.8,0,1.1C22.8,463.1,21.7,464.5,20.2,465.5z"/>
		<path d="M58.9,496.7c-1.5-0.9-3.4-2.7-4.3-4.1c0.2-0.3,0.3-0.7,0.6-0.9c0.9-0.9,1.8-1.9,2.8-2.8c0.4-0.4,0.8-0.4,1.2,0
			c1.1,1,2.1,2,3.1,3c0.4,0.4,0.4,0.9,0,1.4C61.2,494.5,60.1,495.6,58.9,496.7z"/>
		<path fill="#FFFFFF" d="M325.1,474.7c0.9-1.3,2.7-2.6,4.4-3.3c0.8-0.3,1.6-0.5,2.5-0.4c0.4,0,0.8,0,1.1,0.2
			c0.4,0.2,0.8,0.5,1.1,0.8c0.5,0.7,0.3,1.6-0.5,2c-0.4,0.2-0.8,0.4-1.3,0.5c-2.1,0.5-4.2,0.8-6.4,0.8
			C325.7,475.2,325.3,475.2,325.1,474.7z"/>
		<path fill="#FFFFFF" d="M194.1,475.5c0,0.5,0,0.6,0,0.7c0,0.5-0.1,1.1-0.7,1.3c-0.6,0.3-1.2,0.1-1.6-0.3c-1.4-1.5-2-3.2-1.7-5.2
			c0.1-0.9,1.3-1.3,2-0.7c0.2,0.1,0.4,0.3,0.6,0.5C193.5,473,194,474.3,194.1,475.5z"/>
		<path fill="#FFFFFF" d="M222.9,476.2c-1.2,0.4-2.8,0.5-3.6,0.1c-0.3-0.1-0.4-0.6-0.2-0.9c0.1-0.1,0.1-0.2,0.2-0.3
			c0.6-0.4,1.2-0.5,1.9-0.3C222.1,475.1,222.4,475.3,222.9,476.2z"/>
		<path fill="#FFFFFF" d="M362.7,475.8c-0.9-0.2-1.8-0.3-2.7-0.6c-0.6-0.2-1-0.6-1-1.3c0-0.8,0.1-1.5,0.8-1.9
			c0.2-0.2,0.6-0.2,0.9-0.2c1.8,0.3,3.4,0.9,4.9,2c0.7,0.5,0.6,1.3-0.2,1.5C364.6,475.5,363.7,475.6,362.7,475.8z"/>
		<path fill="#FFFFFF" d="M553.5,457.6c0.3,0,0.5,0,0.6,0c0.2,0.1,0.3,0.2,0.4,0.3c0,0-0.1,0.3-0.2,0.3c-0.2,0-0.4,0-0.5-0.1
			C553.7,458.1,553.6,457.9,553.5,457.6z"/>
	</g>
</g>
</svg>
